<svg width="17" height="21" viewBox="0 0 17 21" fill="none" xmlns="http://www.w3.org/2000/svg">
<path d="M11.0837 3.19C11.4618 2.75428 11.75 2.24817 11.9319 1.70074C12.1138 1.1533 12.1858 0.575328 12.1437 0C10.9831 0.093687 9.90571 0.639556 9.14371 1.52C8.77881 1.94198 8.50229 2.43288 8.33052 2.96364C8.15875 3.49441 8.09523 4.05424 8.14371 4.61C8.70986 4.61472 9.26949 4.4891 9.77931 4.24286C10.2891 3.99662 10.7354 3.63637 11.0837 3.19ZM13.6037 10.63C13.6104 9.86374 13.8123 9.11182 14.1902 8.4452C14.5681 7.77859 15.1096 7.21926 15.7637 6.82C15.3509 6.22524 14.8053 5.73483 14.17 5.38767C13.5347 5.04052 12.8272 4.84615 12.1037 4.82C10.5437 4.66 9.10371 5.73 8.27371 5.73C7.44371 5.73 6.27371 4.84 4.97371 4.86C4.12384 4.888 3.29573 5.13578 2.57016 5.57919C1.84458 6.02259 1.24632 6.64648 0.83371 7.39C-0.92629 10.45 0.38371 15 2.14371 17.47C2.94371 18.68 3.94371 20.05 5.26371 20C6.58371 19.95 7.01371 19.18 8.54371 19.18C10.0737 19.18 10.5437 20 11.8437 19.97C13.1437 19.94 14.0637 18.73 14.9037 17.52C15.4988 16.6415 15.9636 15.6816 16.2837 14.67C15.4912 14.332 14.815 13.7693 14.3387 13.0513C13.8625 12.3333 13.6069 11.4916 13.6037 10.63Z" fill="black"/>
</svg>
