<svg width="16" height="18" viewBox="0 0 16 18" fill="none" xmlns="http://www.w3.org/2000/svg">
<path d="M14.6667 6H11.6667V3.66667C11.6667 2.69421 11.2804 1.76158 10.5927 1.07394C9.90509 0.386309 8.97246 0 8 0C7.02754 0 6.09491 0.386309 5.40728 1.07394C4.71964 1.76158 4.33333 2.69421 4.33333 3.66667V6H1.33333C0.979711 6 0.640573 6.14048 0.390524 6.39052C0.140476 6.64057 0 6.97971 0 7.33333V16.6667C0 17.0203 0.140476 17.3594 0.390524 17.6095C0.640573 17.8595 0.979711 18 1.33333 18H14.6667C15.0203 18 15.3594 17.8595 15.6095 17.6095C15.8595 17.3594 16 17.0203 16 16.6667V7.33333C16 6.97971 15.8595 6.64057 15.6095 6.39052C15.3594 6.14048 15.0203 6 14.6667 6ZM8 13C7.80222 13 7.60888 12.9414 7.44443 12.8315C7.27998 12.7216 7.15181 12.5654 7.07612 12.3827C7.00043 12.2 6.98063 11.9989 7.01921 11.8049C7.0578 11.6109 7.15304 11.4327 7.29289 11.2929C7.43275 11.153 7.61093 11.0578 7.80491 11.0192C7.99889 10.9806 8.19996 11.0004 8.38268 11.0761C8.56541 11.1518 8.72159 11.28 8.83147 11.4444C8.94135 11.6089 9 11.8022 9 12C9 12.2652 8.89464 12.5196 8.70711 12.7071C8.51957 12.8946 8.26522 13 8 13ZM10.3333 6H5.66667V3.66667C5.66667 3.04783 5.9125 2.45434 6.35008 2.01675C6.78767 1.57917 7.38116 1.33333 8 1.33333C8.61884 1.33333 9.21233 1.57917 9.64992 2.01675C10.0875 2.45434 10.3333 3.04783 10.3333 3.66667V6Z" fill="#E6E6E6"/>
</svg>
