<svg width="16" height="14" viewBox="0 0 16 14" fill="none" xmlns="http://www.w3.org/2000/svg">
<path d="M14.4 0.35556H1.6C0.72 0.35556 0.00799999 1.10306 0.00799999 2.01667L0 11.9833C0 12.8969 0.72 13.6444 1.6 13.6444H14.4C15.28 13.6444 16 12.8969 16 11.9833V2.01667C16 1.10306 15.28 0.35556 14.4 0.35556ZM14.08 3.88542L8.424 7.55648C8.168 7.72259 7.832 7.72259 7.576 7.55648L1.92 3.88542C1.72 3.75253 1.6 3.52828 1.6 3.28742C1.6 2.73095 2.184 2.39873 2.64 2.68942L8 6.16945L13.36 2.68942C13.816 2.39873 14.4 2.73095 14.4 3.28742C14.4 3.52828 14.28 3.75253 14.08 3.88542Z" fill="#E6E6E6"/>
</svg>
