<?xml version="1.0" standalone="no"?><svg xmlns="http://www.w3.org/2000/svg" viewBox="0 0 1440 320"><path fill="#0099ff" fill-opacity="1" d="M0,224L26.7,202.7C53.3,181,107,139,160,149.3C213.3,160,267,224,320,224C373.3,224,427,160,480,122.7C533.3,85,587,75,640,101.3C693.3,128,747,192,800,186.7C853.3,181,907,107,960,101.3C1013.3,96,1067,160,1120,192C1173.3,224,1227,224,1280,218.7C1333.3,213,1387,203,1413,197.3L1440,192L1440,0L1413.3,0C1386.7,0,1333,0,1280,0C1226.7,0,1173,0,1120,0C1066.7,0,1013,0,960,0C906.7,0,853,0,800,0C746.7,0,693,0,640,0C586.7,0,533,0,480,0C426.7,0,373,0,320,0C266.7,0,213,0,160,0C106.7,0,53,0,27,0L0,0Z"></path></svg>